<svg aria-hidden="true" style="width:0;height:0;position:absolute;overflow:hidden" xmlns="http://www.w3.org/2000/svg"><defs><symbol id="header_logo_icon" viewBox="0 0 32 32"><path fill="none" stroke="#fff" style="stroke:var(--color1,#fff)" stroke-linejoin="round" stroke-linecap="round" stroke-width="2.667" d="M26.427 2.667H5.574a2.907 2.907 0 0 0-2.907 2.907v20.853a2.907 2.907 0 0 0 2.907 2.907h20.853a2.907 2.907 0 0 0 2.907-2.907V5.574a2.907 2.907 0 0 0-2.907-2.907zM9.333 2.667v26.667M22.667 2.667v26.667M2.667 16h26.667M2.667 9.333h6.667M2.667 22.667h6.667M22.667 22.667h6.667M22.667 9.333h6.667"/></symbol><symbol id="icon-search" viewBox="0 0 32 32"><path d="m31.597 29.708-9.181-9.188a12.404 12.404 0 0 0 2.899-7.975c0-6.912-5.673-12.532-12.65-12.532S.001 5.64.001 12.552s5.673 12.532 12.65 12.532c2.964 0 5.692-1.017 7.857-2.715l9.214 9.214c.538.538 1.338.538 1.876 0s.538-1.338 0-1.876zM2.689 12.552c0-5.43 4.473-9.844 9.962-9.844s9.962 4.414 9.962 9.844-4.473 9.844-9.962 9.844-9.962-4.42-9.962-9.844z"/></symbol><symbol id="icon-heart" viewBox="0 0 32 32"><path fill="#2a75e6" style="fill:var(--color1,#2a75e6)" d="M23.342 3h-.009a8.162 8.162 0 0 0-7.312 4.532L16 7.579C14.643 4.846 11.87 3 8.667 3h-.01.001C4.153 3 .5 6.638.5 11.125.5 21.688 16 29 16 29s15.5-7.313 15.5-17.875C31.5 6.638 27.848 3 23.342 3z"/><path fill="#f9d549" style="fill:var(--color2,#f9d549)" d="M1.595 16C5.129 23.871 16 29 16 29s10.871-5.129 14.405-13z"/></symbol><symbol id="git-hub" viewBox="0 0 24 24"><path d="M12 0C5.374 0 0 5.373 0 12c0 5.302 3.438 9.8 8.207 11.387.599.111.793-.261.793-.577v-2.234c-3.338.726-4.033-1.416-4.033-1.416-.546-1.387-1.333-1.756-1.333-1.756-1.089-.745.083-.729.083-.729 1.205.084 1.839 1.237 1.839 1.237 1.07 1.834 2.807 1.304 3.492.997.107-.775.418-1.305.762-1.604-2.665-.305-5.467-1.334-5.467-5.931 0-1.311.469-2.381 1.236-3.221-.124-.303-.535-1.524.117-3.176 0 0 1.008-.322 3.301 1.23A11.509 11.509 0 0 1 12 5.803c1.02.005 2.047.138 3.006.404 2.291-1.552 3.297-1.23 3.297-1.23.653 1.653.242 2.874.118 3.176.77.84 1.235 1.911 1.235 3.221 0 4.609-2.807 5.624-5.479 5.921.43.372.823 1.102.823 2.222v3.293c0 .319.192.694.801.576C20.566 21.797 24 17.3 24 12c0-6.627-5.373-12-12-12z"/></symbol><symbol id="icon-close" viewBox="0 0 32 32"><path d="m2.52 2 26.96 28M2 29.48 30 2.52"/></symbol><symbol id="icon-sun" viewBox="0 0 32 32"><path d="M16 7.885c-4.474 0-8.115 3.64-8.115 8.115s3.64 8.115 8.115 8.115 8.115-3.64 8.115-8.115c0-4.474-3.64-8.115-8.115-8.115z"/><path d="m28.089 16 2.972-3.993a1.05 1.05 0 0 0-.529-1.629l-4.751-1.484.057-4.977a1.048 1.048 0 0 0-1.386-1.006l-4.716 1.592-2.88-4.06a1.048 1.048 0 0 0-1.712 0l-2.88 4.06-4.716-1.592a1.05 1.05 0 0 0-1.386 1.006l.057 4.977-4.751 1.484a1.05 1.05 0 0 0-.529 1.629L3.911 16 .939 19.993a1.05 1.05 0 0 0 .529 1.629l4.751 1.484-.057 4.977a1.048 1.048 0 0 0 1.386 1.006l4.716-1.592 2.88 4.06a1.05 1.05 0 0 0 1.712 0l2.88-4.06 4.716 1.592a1.05 1.05 0 0 0 1.386-1.006l-.057-4.977 4.751-1.484a1.05 1.05 0 0 0 .529-1.629L28.089 16zM16 26.214c-5.632 0-10.214-4.582-10.214-10.214S10.368 5.786 16 5.786 26.214 10.368 26.214 16 21.632 26.214 16 26.214z"/></symbol><symbol id="icon-moon" viewBox="0 0 32 32"><path d="M16 0C7.164 0 0 7.163 0 16s7.163 16 16 16 16-7.163 16-16c-8.837 0-16-7.163-16-16z"/></symbol><symbol id="close-mobile" viewBox="0 0 32 32"><path d="M23.733 10.304 22.229 8.8l-5.963 5.963L10.303 8.8l-1.504 1.504 5.963 5.963-5.963 5.963 1.504 1.504 5.963-5.963 5.963 5.963 1.504-1.504-5.963-5.963 5.963-5.963z"/></symbol><symbol id="icon-circle-up" viewBox="0 0 32 32"><path d="M0 16c0 8.837 7.163 16 16 16s16-7.163 16-16S24.837 0 16 0 0 7.163 0 16zm29 0c0 7.18-5.82 13-13 13S3 23.18 3 16 8.82 3 16 3s13 5.82 13 13z"/><path d="m22.086 20.914 2.829-2.829-8.914-8.914-8.914 8.914 2.828 2.828 6.086-6.086z"/></symbol><symbol id="icon-youtube" viewBox="0 0 32 32"><path d="M31.681 9.6s-.313-2.206-1.275-3.175C29.187 5.15 27.825 5.144 27.2 5.069c-4.475-.325-11.194-.325-11.194-.325h-.012s-6.719 0-11.194.325c-.625.075-1.987.081-3.206 1.356C.631 7.394.325 9.6.325 9.6s-.319 2.588-.319 5.181v2.425c0 2.587.319 5.181.319 5.181s.313 2.206 1.269 3.175c1.219 1.275 2.819 1.231 3.531 1.369 2.563.244 10.881.319 10.881.319s6.725-.012 11.2-.331c.625-.075 1.988-.081 3.206-1.356.962-.969 1.275-3.175 1.275-3.175s.319-2.587.319-5.181v-2.425c-.006-2.588-.325-5.181-.325-5.181zM12.694 20.15v-8.994l8.644 4.513-8.644 4.481z"/></symbol></defs></svg>