<svg aria-hidden="true" style="width:0;height:0;position:absolute;overflow:hidden" xmlns="http://www.w3.org/2000/svg"><defs><symbol id="header_logo_icon" viewBox="0 0 32 32"><path fill="none" stroke="#fff" style="stroke:var(--color1,#fff)" stroke-linejoin="round" stroke-linecap="round" stroke-width="2.667" d="M26.427 2.667H5.574a2.907 2.907 0 0 0-2.907 2.907v20.853a2.907 2.907 0 0 0 2.907 2.907h20.853a2.907 2.907 0 0 0 2.907-2.907V5.574a2.907 2.907 0 0 0-2.907-2.907zM9.333 2.667v26.667M22.667 2.667v26.667M2.667 16h26.667M2.667 9.333h6.667M2.667 22.667h6.667M22.667 22.667h6.667M22.667 9.333h6.667"/></symbol><symbol id="header_input_search_btn" viewBox="0 0 32 32"><path fill="none" stroke="#fff" style="stroke:var(--color1,#fff)" stroke-linejoin="round" stroke-linecap="round" stroke-width="2.667" d="M14.667 25.333c5.891 0 10.667-4.776 10.667-10.667S20.558 3.999 14.667 3.999 4 8.775 4 14.666s4.776 10.667 10.667 10.667zM28 28.001l-5.8-5.8"/></symbol><symbol id="icon-heart" viewBox="0 0 32 32"><path fill="#2a75e6" style="fill:var(--color1,#2a75e6)" d="M23.342 3h-.009a8.162 8.162 0 0 0-7.312 4.532L16 7.579C14.643 4.846 11.87 3 8.667 3h-.01.001C4.153 3 .5 6.638.5 11.125.5 21.688 16 29 16 29s15.5-7.313 15.5-17.875C31.5 6.638 27.848 3 23.342 3z"/><path fill="#f9d549" style="fill:var(--color2,#f9d549)" d="M1.595 16C5.129 23.871 16 29 16 29s10.871-5.129 14.405-13z"/></symbol></defs></svg>