<svg aria-hidden="true" style="position: absolute; width: 0; height: 0; overflow: hidden;" version="1.1" xmlns="http://www.w3.org/2000/svg" xmlns:xlink="http://www.w3.org/1999/xlink">
	<defs>
		<symbol id="header_logo_icon" viewBox="0 0 32 32">
			<path fill="none" stroke="#fff" style="stroke: var(--color1, #fff)" stroke-linejoin="round" stroke-linecap="round" stroke-miterlimit="4" stroke-width="2.6667" d="M26.427 2.667h-20.853c-1.605 0-2.907 1.301-2.907 2.907v20.853c0 1.605 1.301 2.907 2.907 2.907h20.853c1.605 0 2.907-1.301 2.907-2.907v-20.853c0-1.605-1.301-2.907-2.907-2.907z">
			</path>
			<path fill="none" stroke="#fff" style="stroke: var(--color1, #fff)" stroke-linejoin="round" stroke-linecap="round" stroke-miterlimit="4" stroke-width="2.6667" d="M9.333 2.667v26.667">
			</path>
			<path fill="none" stroke="#fff" style="stroke: var(--color1, #fff)" stroke-linejoin="round" stroke-linecap="round" stroke-miterlimit="4" stroke-width="2.6667" d="M22.667 2.667v26.667">
			</path>
			<path fill="none" stroke="#fff" style="stroke: var(--color1, #fff)" stroke-linejoin="round" stroke-linecap="round" stroke-miterlimit="4" stroke-width="2.6667" d="M2.667 16h26.667">
			</path>
			<path fill="none" stroke="#fff" style="stroke: var(--color1, #fff)" stroke-linejoin="round" stroke-linecap="round" stroke-miterlimit="4" stroke-width="2.6667" d="M2.667 9.333h6.667">
			</path>
			<path fill="none" stroke="#fff" style="stroke: var(--color1, #fff)" stroke-linejoin="round" stroke-linecap="round" stroke-miterlimit="4" stroke-width="2.6667" d="M2.667 22.667h6.667">
			</path>
			<path fill="none" stroke="#fff" style="stroke: var(--color1, #fff)" stroke-linejoin="round" stroke-linecap="round" stroke-miterlimit="4" stroke-width="2.6667" d="M22.667 22.667h6.667">
			</path>
			<path fill="none" stroke="#fff" style="stroke: var(--color1, #fff)" stroke-linejoin="round" stroke-linecap="round" stroke-miterlimit="4" stroke-width="2.6667" d="M22.667 9.333h6.667">
			</path>
		</symbol>
		
		<symbol id="icon-search" viewBox="0 0 32 32">
<path d="M31.597 29.708l-9.181-9.188c1.81-2.171 2.899-4.945 2.899-7.975 0-6.912-5.673-12.532-12.65-12.532s-12.664 5.627-12.664 12.539 5.673 12.532 12.65 12.532c2.964 0 5.692-1.017 7.857-2.715l9.214 9.214c0.538 0.538 1.338 0.538 1.876 0s0.538-1.338 0-1.876zM2.689 12.552c0-5.43 4.473-9.844 9.962-9.844s9.962 4.414 9.962 9.844-4.473 9.844-9.962 9.844-9.962-4.42-9.962-9.844z"></path>
</symbol>
		<symbol id="icon-heart" viewBox="0 0 32 32">
			<path fill="#2a75e6" style="fill: var(--color1, #2a75e6)" d="M23.342 3c-0.003 0-0.006 0-0.009 0-3.204 0-5.976 1.846-7.312 4.532l-0.021 0.047c-1.357-2.733-4.13-4.579-7.333-4.579-0.003 0-0.006 0-0.010 0h0.001c-4.505 0-8.158 3.638-8.158 8.125 0 10.563 15.5 17.875 15.5 17.875s15.5-7.313 15.5-17.875c0-4.487-3.652-8.125-8.158-8.125z">
			</path>
			<path fill="#f9d549" style="fill: var(--color2, #f9d549)" d="M1.595 16c3.534 7.871 14.405 13 14.405 13s10.871-5.129 14.405-13z">
			</path>
		</symbol>
		<symbol id="git-hub" viewBox="0 0 24 24">
			<path d="M12 0c-6.626 0-12 5.373-12 12 0 5.302 3.438 9.8 8.207 11.387.599.111.793-.261.793-.577v-2.234c-3.338.726-4.033-1.416-4.033-1.416-.546-1.387-1.333-1.756-1.333-1.756-1.089-.745.083-.729.083-.729 1.205.084 1.839 1.237 1.839 1.237 1.07 1.834 2.807 1.304 3.492.997.107-.775.418-1.305.762-1.604-2.665-.305-5.467-1.334-5.467-5.931 0-1.311.469-2.381 1.236-3.221-.124-.303-.535-1.524.117-3.176 0 0 1.008-.322 3.301 1.23.957-.266 1.983-.399 3.003-.404 1.02.005 2.047.138 3.006.404 2.291-1.552 3.297-1.23 3.297-1.23.653 1.653.242 2.874.118 3.176.77.84 1.235 1.911 1.235 3.221 0 4.609-2.807 5.624-5.479 5.921.43.372.823 1.102.823 2.222v3.293c0 .319.192.694.801.576 4.765-1.589 8.199-6.086 8.199-11.386 0-6.627-5.373-12-12-12z" />
		</symbol>
		<symbol id="icon-close" viewBox="0 0 32 32">
			<path d="M2.52 2l26.96 28M2 29.48l28-26.96">
			</path>
		</symbol>
		<symbol id="icon-sun" viewBox="0 0 32 32">
			<path d="M16 7.885c-4.474 0-8.115 3.64-8.115 8.115s3.64 8.115 8.115 8.115 8.115-3.64 8.115-8.115c0-4.474-3.64-8.115-8.115-8.115z">
			</path>
			<path d="M28.089 16l2.972-3.993c0.203-0.273 0.261-0.627 0.156-0.951s-0.361-0.576-0.685-0.678l-4.751-1.484 0.057-4.977c0.004-0.34-0.157-0.661-0.433-0.861s-0.63-0.254-0.953-0.145l-4.716 1.592-2.88-4.060c-0.197-0.278-0.516-0.442-0.856-0.442s-0.659 0.165-0.856 0.442l-2.88 4.060-4.716-1.592c-0.322-0.109-0.677-0.055-0.953 0.145s-0.436 0.521-0.433 0.861l0.057 4.977-4.751 1.484c-0.325 0.101-0.58 0.354-0.685 0.678s-0.047 0.678 0.156 0.951l2.972 3.993-2.972 3.993c-0.203 0.273-0.261 0.627-0.156 0.951s0.361 0.576 0.685 0.678l4.751 1.484-0.057 4.977c-0.004 0.34 0.157 0.661 0.433 0.861s0.63 0.254 0.953 0.145l4.716-1.592 2.88 4.060c0.197 0.277 0.516 0.442 0.856 0.442s0.659-0.165 0.856-0.442l2.88-4.060 4.716 1.592c0.322 0.109 0.677 0.055 0.953-0.145s0.436-0.521 0.433-0.861l-0.057-4.977 4.751-1.484c0.325-0.101 0.58-0.354 0.685-0.678s0.047-0.678-0.156-0.951l-2.972-3.993zM16 26.214c-5.632 0-10.214-4.582-10.214-10.214s4.582-10.214 10.214-10.214 10.214 4.582 10.214 10.214-4.582 10.214-10.214 10.214z">
			</path>
		</symbol>
		<symbol id="icon-moon" viewBox="0 0 32 32">
			<path d="M16 0c-8.836 0-16 7.163-16 16s7.163 16 16 16 16-7.163 16-16c-8.837 0-16-7.163-16-16z">
			</path>
		</symbol>
		<symbol id="close-mobile" viewBox="0 0 32 32">
			<path d="M23.733 10.304l-1.504-1.504-5.963 5.963-5.963-5.963-1.504 1.504 5.963 5.963-5.963 5.963 1.504 1.504 5.963-5.963 5.963 5.963 1.504-1.504-5.963-5.963 5.963-5.963z">
			</path>
		</symbol>
		<symbol id="icon-circle-up" viewBox="0 0 32 32">
<path d="M0 16c0 8.837 7.163 16 16 16s16-7.163 16-16-7.163-16-16-16-16 7.163-16 16zM29 16c0 7.18-5.82 13-13 13s-13-5.82-13-13 5.82-13 13-13 13 5.82 13 13z"></path>
<path d="M22.086 20.914l2.829-2.829-8.914-8.914-8.914 8.914 2.828 2.828 6.086-6.086z"></path>
</symbol>
<symbol id="icon-youtube" viewBox="0 0 32 32">
<path d="M31.681 9.6c0 0-0.313-2.206-1.275-3.175-1.219-1.275-2.581-1.281-3.206-1.356-4.475-0.325-11.194-0.325-11.194-0.325h-0.012c0 0-6.719 0-11.194 0.325-0.625 0.075-1.987 0.081-3.206 1.356-0.963 0.969-1.269 3.175-1.269 3.175s-0.319 2.588-0.319 5.181v2.425c0 2.587 0.319 5.181 0.319 5.181s0.313 2.206 1.269 3.175c1.219 1.275 2.819 1.231 3.531 1.369 2.563 0.244 10.881 0.319 10.881 0.319s6.725-0.012 11.2-0.331c0.625-0.075 1.988-0.081 3.206-1.356 0.962-0.969 1.275-3.175 1.275-3.175s0.319-2.587 0.319-5.181v-2.425c-0.006-2.588-0.325-5.181-0.325-5.181zM12.694 20.15v-8.994l8.644 4.513-8.644 4.481z"></path>
</symbol>
	</defs>
</svg>
